<svg xmlns="http://www.w3.org/2000/svg" width="240" height="400" viewBox="0 0 240 400"><defs><filter id="s" x="-20%" y="-20%" width="140%" height="140%"><feDropShadow dx="0" dy="10" stdDeviation="14" flood-color="#202733" flood-opacity=".13"/></filter><style>.sans{font-family:-apple-system,BlinkMacSystemFont,'Segoe UI',Arial,sans-serif}.ink{fill:#202733}.muted{fill:#5c6470}.blue{fill:#2864dc}.line{stroke:#d8d1c3}</style></defs><rect width="100%" height="100%" fill="#f7f4ec"/><g class="sans ink" text-anchor="middle" font-weight="400" font-size="16.661157024793386"><text x="120" y="72">10 лет с текстами</text><text x="120" y="90.82710743801653">ваше преимущество в AI</text></g><g filter="url(#s)"><rect x="28.16" y="196.96" width="40.32" height="56" rx="12" fill="#fffdf8" stroke="#d8d1c3" stroke-width="2"/><path d="M32.480000000000004 196.96v28h36" fill="#e8eefc" stroke="#d8d1c3" stroke-width="2"/><path d="M50.16 209.28h27.417600000000004" stroke="#5c6470" stroke-width="4" stroke-linecap="round"/><path d="M50.16 216h21.7728" stroke="#5c6470" stroke-width="4" stroke-linecap="round"/><path d="M50.16 222.72h30.6432" stroke="#5c6470" stroke-width="4" stroke-linecap="round"/><path d="M50.16 229.44h17.7408" stroke="#5c6470" stroke-width="4" stroke-linecap="round"/><path d="M50.16 236.16h25.8048" stroke="#5c6470" stroke-width="4" stroke-linecap="round"/></g><path d="M71.84 224.736 L92 224.736" stroke="#2864dc" stroke-width="5" stroke-linecap="round"/><path d="M81 216.736 L92 224.736 L81 232.736" fill="none" stroke="#2864dc" stroke-width="5" stroke-linecap="round" stroke-linejoin="round"/><g filter="url(#s)"><rect x="96.48" y="193.6" width="59.36" height="63.84" rx="18" fill="#eef3ff" stroke="#bfd0fb" stroke-width="2"/><rect x="116.48" y="213.6" width="19.36" height="30" rx="7" fill="#2864dc"/><circle cx="132.48000000000002" cy="228.6" r="5" fill="#64d4a0"/><circle cx="150.48000000000002" cy="228.6" r="5" fill="#e6c44f"/><rect x="120.48" y="268.6" width="27.305600000000002" height="17.875200000000003" rx="9" fill="#fffdf8"/><rect x="130.90879999999999" y="268.6" width="13.0592" height="17.875200000000003" rx="9" fill="#64d4a0"/><path d="M134.48000000000002 238.288C114.28800000000001 221.68959999999998,129.12800000000001 251.05599999999998,143.96800000000002 229.9888" fill="none" stroke="#9255e8" stroke-width="5" stroke-linecap="round"/><circle cx="143.96800000000002" cy="229.9888" r="10" fill="#ef74ad"/></g><path d="M160.32 224.736 L177.12 224.736" stroke="#2864dc" stroke-width="5" stroke-linecap="round"/><path d="M166.12 216.736 L177.12 224.736 L166.12 232.736" fill="none" stroke="#2864dc" stroke-width="5" stroke-linecap="round" stroke-linejoin="round"/><g filter="url(#s)"><rect x="182.72" y="205.92000000000002" width="110" height="220" rx="16" fill="#fffdf8"/><path d="M188.32 244l26 -45 28 20 36-76" fill="none" stroke="#64d4a0" stroke-width="10" stroke-linecap="round"/><circle cx="207.35999999999999" cy="220.928" r="13" fill="#ef74ad"/></g><g transform="translate(18 369.6) scale(0.34285714285714286)"><rect x="0" y="0" width="42" height="42" rx="12" fill="#eef3ff" stroke="#cbd8fb"/><circle cx="21" cy="21" r="8" fill="#2864dc"/><circle cx="9" cy="12" r="4" fill="#64d4a0"/><circle cx="33" cy="12" r="4" fill="#9255e8"/><circle cx="9" cy="30" r="4" fill="#ef74ad"/><circle cx="33" cy="30" r="4" fill="#e6c44f"/><text class="sans ink" x="53" y="29" font-size="23" font-weight="400">AI Native Maker</text></g></svg>