<svg xmlns="http://www.w3.org/2000/svg" width="728" height="90" viewBox="0 0 728 90"><defs><filter id="s" x="-20%" y="-20%" width="140%" height="140%"><feDropShadow dx="0" dy="10" stdDeviation="14" flood-color="#202733" flood-opacity=".13"/></filter><style>.sans{font-family:-apple-system,BlinkMacSystemFont,'Segoe UI',Arial,sans-serif}.ink{fill:#202733}.muted{fill:#5c6470}.blue{fill:#2864dc}.line{stroke:#d8d1c3}</style></defs><rect width="100%" height="100%" fill="#f7f4ec"/><g class="sans ink" text-anchor="middle" font-weight="400" font-size="30.6"><text x="364" y="37.8">10 лет с текстами → AI</text></g><g filter="url(#s)"><rect x="531.0251162790697" y="14.065116279069766" width="30.893023255813954" height="42.906976744186046" rx="12" fill="#fffdf8" stroke="#d8d1c3" stroke-width="2"/><path d="M525.9181395348837 14.065116279069766v28h36" fill="#e8eefc" stroke="#d8d1c3" stroke-width="2"/><path d="M553.0251162790697 23.504651162790694h21.007255813953492" stroke="#5c6470" stroke-width="4" stroke-linecap="round"/><path d="M553.0251162790697 28.653488372093022h16.682232558139535" stroke="#5c6470" stroke-width="4" stroke-linecap="round"/><path d="M553.0251162790697 33.80232558139535h23.478697674418605" stroke="#5c6470" stroke-width="4" stroke-linecap="round"/><path d="M553.0251162790697 38.95116279069767h13.59293023255814" stroke="#5c6470" stroke-width="4" stroke-linecap="round"/><path d="M553.0251162790697 44.099999999999994h19.771534883720932" stroke="#5c6470" stroke-width="4" stroke-linecap="round"/></g><path d="M564.4925581395348 35.346976744186044 L579.9390697674419 35.346976744186044" stroke="#2864dc" stroke-width="5" stroke-linecap="round"/><path d="M568.9390697674419 27.346976744186044 L579.9390697674419 35.346976744186044 L568.9390697674419 43.346976744186044" fill="none" stroke="#2864dc" stroke-width="5" stroke-linecap="round" stroke-linejoin="round"/><g filter="url(#s)"><rect x="583.3716279069768" y="11.490697674418605" width="45.48139534883721" height="48.913953488372094" rx="18" fill="#eef3ff" stroke="#bfd0fb" stroke-width="2"/><rect x="603.3716279069768" y="31.490697674418605" width="5.481395348837211" height="30" rx="7" fill="#2864dc"/><circle cx="619.3716279069768" cy="46.490697674418605" r="5" fill="#64d4a0"/><circle cx="637.3716279069768" cy="46.490697674418605" r="5" fill="#e6c44f"/><rect x="607.3716279069768" y="86.49069767441861" width="20.92144186046512" height="13.695906976744187" rx="9" fill="#fffdf8"/><rect x="609.7508372093023" y="86.49069767441861" width="10.005906976744187" height="13.695906976744187" rx="9" fill="#64d4a0"/><path d="M621.3716279069768 45.73046511627907C597.0160465116279 33.012837209302326,608.3863953488373 55.51325581395349,619.7567441860465 39.3716511627907" fill="none" stroke="#9255e8" stroke-width="5" stroke-linecap="round"/><circle cx="619.7567441860465" cy="39.3716511627907" r="10" fill="#ef74ad"/></g><path d="M632.2855813953488 35.346976744186044 L645.1576744186046 35.346976744186044" stroke="#2864dc" stroke-width="5" stroke-linecap="round"/><path d="M634.1576744186046 27.346976744186044 L645.1576744186046 35.346976744186044 L634.1576744186046 43.346976744186044" fill="none" stroke="#2864dc" stroke-width="5" stroke-linecap="round" stroke-linejoin="round"/><g filter="url(#s)"><rect x="649.4483720930232" y="20.930232558139533" width="110" height="220" rx="16" fill="#fffdf8"/><path d="M653.7390697674418 50.10697674418605l26 -45 28 20 36-76" fill="none" stroke="#64d4a0" stroke-width="10" stroke-linecap="round"/><circle cx="668.3274418604651" cy="32.429302325581396" r="13" fill="#ef74ad"/></g><g transform="translate(16 12) scale(0.43)"><rect x="0" y="0" width="42" height="42" rx="12" fill="#eef3ff" stroke="#cbd8fb"/><circle cx="21" cy="21" r="8" fill="#2864dc"/><circle cx="9" cy="12" r="4" fill="#64d4a0"/><circle cx="33" cy="12" r="4" fill="#9255e8"/><circle cx="9" cy="30" r="4" fill="#ef74ad"/><circle cx="33" cy="30" r="4" fill="#e6c44f"/><text class="sans ink" x="53" y="29" font-size="23" font-weight="400">AI Native Maker</text></g></svg>