<svg xmlns="http://www.w3.org/2000/svg" width="300" height="600" viewBox="0 0 300 600"><defs><filter id="s" x="-20%" y="-20%" width="140%" height="140%"><feDropShadow dx="0" dy="10" stdDeviation="14" flood-color="#202733" flood-opacity=".13"/></filter><style>.sans{font-family:-apple-system,BlinkMacSystemFont,'Segoe UI',Arial,sans-serif}.ink{fill:#202733}.muted{fill:#5c6470}.blue{fill:#2864dc}.line{stroke:#d8d1c3}</style></defs><rect width="100%" height="100%" fill="#f7f4ec"/><g class="sans ink" text-anchor="middle" font-weight="400" font-size="13.884297520661155"><text x="150" y="108">Умеете видеть плохой текст?</text><text x="150" y="123.68925619834711">Научите AI делать хорошую работу.</text></g><g filter="url(#s)"><rect x="36.6" y="289" width="72.80000000000001" height="84.00000000000001" rx="12" fill="#fffdf8" stroke="#d8d1c3" stroke-width="2"/><path d="M73.4 289v28h36" fill="#e8eefc" stroke="#d8d1c3" stroke-width="2"/><path d="M58.6 307.48h45.13600000000001" stroke="#5c6470" stroke-width="4" stroke-linecap="round"/><path d="M58.6 317.56h55.32800000000001" stroke="#b54a4a" stroke-width="5" stroke-linecap="round"/><path d="M58.6 327.64h34.944" stroke="#5c6470" stroke-width="4" stroke-linecap="round"/><path d="M58.6 337.72h51.688" stroke="#5c6470" stroke-width="4" stroke-linecap="round"/><path d="M58.6 347.8h42.224000000000004" stroke="#5c6470" stroke-width="4" stroke-linecap="round"/><path d="M66.6 318.4l40.040000000000006 13.440000000000003M66.6 335.2l38.58400000000001 -10.080000000000002" stroke="#b54a4a" stroke-width="4"/></g><path d="M120.60000000000001 287.6v320" stroke="#d8d1c3" stroke-width="4"/><g filter="url(#s)"><rect x="141.60000000000002" y="294.6" width="84.00000000000001" height="72.80000000000001" rx="18" fill="#eef3ff" stroke="#bfd0fb" stroke-width="2"/><rect x="161.60000000000002" y="314.6" width="44.000000000000014" height="30" rx="7" fill="#2864dc"/><circle cx="177.60000000000002" cy="329.6" r="5" fill="#64d4a0"/><circle cx="195.60000000000002" cy="329.6" r="5" fill="#e6c44f"/><rect x="165.60000000000002" y="369.6" width="38.64000000000001" height="20.384000000000004" rx="9" fill="#fffdf8"/><rect x="190.32000000000002" y="369.6" width="18.480000000000004" height="20.384000000000004" rx="9" fill="#64d4a0"/><path d="M179.60000000000002 345.56000000000006C166.8 326.632,187.80000000000004 360.12,208.80000000000004 336.096" fill="none" stroke="#9255e8" stroke-width="5" stroke-linecap="round"/><circle cx="208.80000000000004" cy="336.096" r="10" fill="#ef74ad"/></g><path d="M112.2 329.6 L136 329.6" stroke="#2864dc" stroke-width="5" stroke-linecap="round"/><path d="M125 321.6 L136 329.6 L125 337.6" fill="none" stroke="#2864dc" stroke-width="5" stroke-linecap="round" stroke-linejoin="round"/><g transform="translate(18 566) scale(0.42857142857142855)"><rect x="0" y="0" width="42" height="42" rx="12" fill="#eef3ff" stroke="#cbd8fb"/><circle cx="21" cy="21" r="8" fill="#2864dc"/><circle cx="9" cy="12" r="4" fill="#64d4a0"/><circle cx="33" cy="12" r="4" fill="#9255e8"/><circle cx="9" cy="30" r="4" fill="#ef74ad"/><circle cx="33" cy="30" r="4" fill="#e6c44f"/><text class="sans ink" x="53" y="29" font-size="23" font-weight="400">AI Native Maker</text></g></svg>