<svg xmlns="http://www.w3.org/2000/svg" width="728" height="90" viewBox="0 0 728 90"><defs><filter id="s" x="-20%" y="-20%" width="140%" height="140%"><feDropShadow dx="0" dy="10" stdDeviation="14" flood-color="#202733" flood-opacity=".13"/></filter><style>.sans{font-family:-apple-system,BlinkMacSystemFont,'Segoe UI',Arial,sans-serif}.ink{fill:#202733}.muted{fill:#5c6470}.blue{fill:#2864dc}.line{stroke:#d8d1c3}</style></defs><rect width="100%" height="100%" fill="#f7f4ec"/><g class="sans ink" text-anchor="middle" font-weight="400" font-size="30.6"><text x="364" y="37.8">Текст → AI-проекты</text></g><g filter="url(#s)"><rect x="529.3088372093023" y="40.23837209302325" width="34.325581395348834" height="6.436046511627906" rx="7" fill="#2864dc"/><rect x="531.8832558139535" y="33.802325581395344" width="32.18023255813953" height="6.436046511627906" rx="7" fill="#e6c44f"/><rect x="534.6722093023255" y="27.36627906976744" width="30.03488372093023" height="6.436046511627906" rx="7" fill="#9255e8"/><path d="M536.8175581395349 30.584302325581394h112" stroke="#fffdf8" stroke-width="4" opacity=".8"/></g><path d="M566.2088372093023 36.033488372093025 L580.7972093023255 36.033488372093025" stroke="#2864dc" stroke-width="5" stroke-linecap="round"/><path d="M569.7972093023255 28.033488372093025 L580.7972093023255 36.033488372093025 L569.7972093023255 44.033488372093025" fill="none" stroke="#2864dc" stroke-width="5" stroke-linecap="round" stroke-linejoin="round"/><g filter="url(#s)"><rect x="585.0879069767442" y="13.206976744186047" width="43.765116279069765" height="46.33953488372093" rx="18" fill="#eef3ff" stroke="#bfd0fb" stroke-width="2"/><rect x="605.0879069767442" y="33.20697674418605" width="3.7651162790697654" height="30" rx="7" fill="#2864dc"/><circle cx="621.0879069767442" cy="48.20697674418605" r="5" fill="#64d4a0"/><circle cx="639.0879069767442" cy="48.20697674418605" r="5" fill="#e6c44f"/><rect x="609.0879069767442" y="88.20697674418605" width="20.131953488372094" height="12.97506976744186" rx="9" fill="#fffdf8"/><rect x="610.4716744186046" y="88.20697674418605" width="9.628325581395348" height="12.97506976744186" rx="9" fill="#64d4a0"/><path d="M623.0879069767442 45.644651162790694C598.2174418604651 33.596372093023255,609.1587209302326 54.91255813953488,620.1 39.62051162790698" fill="none" stroke="#9255e8" stroke-width="5" stroke-linecap="round"/><circle cx="620.1" cy="39.62051162790698" r="10" fill="#ef74ad"/></g><path d="M631.427441860465 36.033488372093025 L644.2995348837209 36.033488372093025" stroke="#2864dc" stroke-width="5" stroke-linecap="round"/><path d="M633.2995348837209 28.033488372093025 L644.2995348837209 36.033488372093025 L633.2995348837209 44.033488372093025" fill="none" stroke="#2864dc" stroke-width="5" stroke-linecap="round" stroke-linejoin="round"/><g filter="url(#s)"><rect x="648.5902325581395" y="19.55720930232558" width="130*s" height="190*s" rx="14" fill="#fffdf8" stroke="#d8d1c3"/><path d="M652.8809302325581 43.24186046511628h80M652.8809302325581 38.95116279069767h50" stroke="#2864dc" stroke-width="8"/><circle cx="659.7460465116278" cy="28.653488372093022" r="24" fill="#64d4a0"/></g><g transform="translate(16 12) scale(0.43)"><rect x="0" y="0" width="42" height="42" rx="12" fill="#eef3ff" stroke="#cbd8fb"/><circle cx="21" cy="21" r="8" fill="#2864dc"/><circle cx="9" cy="12" r="4" fill="#64d4a0"/><circle cx="33" cy="12" r="4" fill="#9255e8"/><circle cx="9" cy="30" r="4" fill="#ef74ad"/><circle cx="33" cy="30" r="4" fill="#e6c44f"/><text class="sans ink" x="53" y="29" font-size="23" font-weight="400">AI Native Maker</text></g></svg>