<svg xmlns="http://www.w3.org/2000/svg" width="1600" height="1200" viewBox="0 0 1600 1200"><defs><filter id="s" x="-20%" y="-20%" width="140%" height="140%"><feDropShadow dx="0" dy="10" stdDeviation="14" flood-color="#202733" flood-opacity=".13"/></filter><style>.sans{font-family:-apple-system,BlinkMacSystemFont,'Segoe UI',Arial,sans-serif}.ink{fill:#202733}.muted{fill:#5c6470}.blue{fill:#2864dc}.line{stroke:#d8d1c3}</style></defs><rect width="100%" height="100%" fill="#f7f4ec"/><g transform="translate(32 32) scale(0.9)"><rect x="0" y="0" width="42" height="42" rx="12" fill="#eef3ff" stroke="#cbd8fb"/><circle cx="21" cy="21" r="8" fill="#2864dc"/><circle cx="9" cy="12" r="4" fill="#64d4a0"/><circle cx="33" cy="12" r="4" fill="#9255e8"/><circle cx="9" cy="30" r="4" fill="#ef74ad"/><circle cx="33" cy="30" r="4" fill="#e6c44f"/><text class="sans ink" x="53" y="29" font-size="23" font-weight="400">AI Native Maker</text></g><text class="sans muted" x="800" y="192" text-anchor="middle" font-size="42">TEXT TO AI PROJECT</text><g filter="url(#s)"><rect x="172.8" y="551.4666666666667" width="298.6666666666667" height="56" rx="7" fill="#2864dc"/><rect x="195.20000000000002" y="495.46666666666664" width="280" height="56" rx="7" fill="#e6c44f"/><rect x="219.46666666666667" y="439.46666666666664" width="261.3333333333333" height="56" rx="7" fill="#9255e8"/><path d="M238.13333333333333 467.46666666666664h112" stroke="#fffdf8" stroke-width="4" opacity=".8"/></g><path d="M493.8666666666667 514.88 L620.8 514.88" stroke="#2864dc" stroke-width="5" stroke-linecap="round"/><path d="M609.8 506.88 L620.8 514.88 L609.8 522.88" fill="none" stroke="#2864dc" stroke-width="5" stroke-linecap="round" stroke-linejoin="round"/><g filter="url(#s)"><rect x="658.1333333333333" y="316.26666666666665" width="380.8" height="403.20000000000005" rx="18" fill="#eef3ff" stroke="#bfd0fb" stroke-width="2"/><rect x="678.1333333333333" y="336.26666666666665" width="340.8" height="30" rx="7" fill="#2864dc"/><circle cx="694.1333333333333" cy="351.26666666666665" r="5" fill="#64d4a0"/><circle cx="712.1333333333333" cy="351.26666666666665" r="5" fill="#e6c44f"/><rect x="682.1333333333333" y="391.26666666666665" width="175.168" height="112.89600000000003" rx="9" fill="#fffdf8"/><rect x="878.9973333333334" y="391.26666666666665" width="83.776" height="112.89600000000003" rx="9" fill="#64d4a0"/><path d="M696.1333333333333 598.5066666666667C772.3733333333333 493.67466666666667,867.5733333333334 679.1466666666668,962.7733333333333 546.0906666666667" fill="none" stroke="#9255e8" stroke-width="5" stroke-linecap="round"/><circle cx="962.7733333333333" cy="546.0906666666667" r="10" fill="#ef74ad"/></g><path d="M1061.3333333333335 514.88 L1173.3333333333335 514.88" stroke="#2864dc" stroke-width="5" stroke-linecap="round"/><path d="M1162.3333333333335 506.88 L1173.3333333333335 514.88 L1162.3333333333335 522.88" fill="none" stroke="#2864dc" stroke-width="5" stroke-linecap="round" stroke-linejoin="round"/><g filter="url(#s)"><rect x="1210.6666666666667" y="371.52" width="130*s" height="190*s" rx="14" fill="#fffdf8" stroke="#d8d1c3"/><path d="M1248 577.6h80M1248 540.2666666666667h50" stroke="#2864dc" stroke-width="8"/><circle cx="1307.7333333333333" cy="450.6666666666667" r="24" fill="#64d4a0"/></g></svg>