<svg xmlns="http://www.w3.org/2000/svg" width="240" height="400" viewBox="0 0 240 400"><defs><filter id="s" x="-20%" y="-20%" width="140%" height="140%"><feDropShadow dx="0" dy="10" stdDeviation="14" flood-color="#202733" flood-opacity=".13"/></filter><style>.sans{font-family:-apple-system,BlinkMacSystemFont,'Segoe UI',Arial,sans-serif}.ink{fill:#202733}.muted{fill:#5c6470}.blue{fill:#2864dc}.line{stroke:#d8d1c3}</style></defs><rect width="100%" height="100%" fill="#f7f4ec"/><g class="sans ink" text-anchor="middle" font-weight="400" font-size="11.454545454545453"><text x="120" y="72">Не курс по промптам.</text><text x="120" y="84.94363636363636">Собирайте работающие AI-проекты.</text></g><g filter="url(#s)"><ellipse cx="115.52000000000001" cy="261.92" rx="60.480000000000004" ry="9.408000000000001" fill="#ede8dc"/><rect x="55.040000000000006" y="248.48000000000002" width="120.96000000000001" height="8.064" rx="8" fill="#9a7659"/><rect x="92" y="214.88000000000002" width="57.120000000000005" height="35.28" rx="9" fill="#202733"/><rect x="96.03200000000001" y="218.912" width="49.056000000000004" height="25.536" rx="5" fill="#e8eefc"/><path d="M103.76000000000002 236.72000000000003h90" stroke="#2864dc" stroke-width="7"/><path d="M118.88000000000001 250.16000000000003v32" stroke="#202733" stroke-width="12"/><circle cx="73.52000000000001" cy="237.39200000000002" r="26" fill="#b97356"/><path d="M63.77600000000001 246.8q28-42 59 0v35H26z" fill="#5d708f"/><path d="M66.80000000000001 252.848L86.96000000000001 241.08800000000002" stroke="#b97356" stroke-width="10" stroke-linecap="round"/><rect x="151.13600000000002" y="233.36" width="16.128" height="18.816000000000003" rx="4" fill="#fffdf8" stroke="#d8d1c3"/></g><g transform="translate(18 369.6) scale(0.34285714285714286)"><rect x="0" y="0" width="42" height="42" rx="12" fill="#eef3ff" stroke="#cbd8fb"/><circle cx="21" cy="21" r="8" fill="#2864dc"/><circle cx="9" cy="12" r="4" fill="#64d4a0"/><circle cx="33" cy="12" r="4" fill="#9255e8"/><circle cx="9" cy="30" r="4" fill="#ef74ad"/><circle cx="33" cy="30" r="4" fill="#e6c44f"/><text class="sans ink" x="53" y="29" font-size="23" font-weight="400">AI Native Maker</text></g></svg>