<svg xmlns="http://www.w3.org/2000/svg" width="300" height="250" viewBox="0 0 300 250"><defs><filter id="s" x="-20%" y="-20%" width="140%" height="140%"><feDropShadow dx="0" dy="10" stdDeviation="14" flood-color="#202733" flood-opacity=".13"/></filter><style>.sans{font-family:-apple-system,BlinkMacSystemFont,'Segoe UI',Arial,sans-serif}.ink{fill:#202733}.muted{fill:#5c6470}.blue{fill:#2864dc}.line{stroke:#d8d1c3}</style></defs><rect width="100%" height="100%" fill="#f7f4ec"/><g class="sans ink" text-anchor="middle" font-weight="400" font-size="14.318181818181817"><text x="150" y="45">Не курс по промптам.</text><text x="150" y="61.17954545454545">Собирайте работающие AI-проекты.</text></g><g filter="url(#s)"><ellipse cx="134" cy="201.9186046511628" rx="69.06976744186046" ry="10.74418604651163" fill="#ede8dc"/><rect x="64.93023255813954" y="186.56976744186045" width="138.13953488372093" height="9.209302325581396" rx="8" fill="#9a7659"/><rect x="107.13953488372093" y="148.19767441860466" width="65.23255813953489" height="40.29069767441861" rx="9" fill="#202733"/><rect x="111.74418604651163" y="152.80232558139534" width="56.02325581395349" height="29.16279069767442" rx="5" fill="#e8eefc"/><path d="M120.56976744186048 173.13953488372093h90" stroke="#2864dc" stroke-width="7"/><path d="M137.8372093023256 188.48837209302326v32" stroke="#202733" stroke-width="12"/><circle cx="86.03488372093024" cy="173.90697674418604" r="26" fill="#b97356"/><path d="M74.90697674418605 184.65116279069767q28-42 59 0v35H26z" fill="#5d708f"/><path d="M78.36046511627907 191.5581395348837L101.38372093023256 178.12790697674419" stroke="#b97356" stroke-width="10" stroke-linecap="round"/><rect x="174.67441860465118" y="169.30232558139534" width="18.41860465116279" height="21.48837209302326" rx="4" fill="#fffdf8" stroke="#d8d1c3"/></g><g transform="translate(18 216) scale(0.42857142857142855)"><rect x="0" y="0" width="42" height="42" rx="12" fill="#eef3ff" stroke="#cbd8fb"/><circle cx="21" cy="21" r="8" fill="#2864dc"/><circle cx="9" cy="12" r="4" fill="#64d4a0"/><circle cx="33" cy="12" r="4" fill="#9255e8"/><circle cx="9" cy="30" r="4" fill="#ef74ad"/><circle cx="33" cy="30" r="4" fill="#e6c44f"/><text class="sans ink" x="53" y="29" font-size="23" font-weight="400">AI Native Maker</text></g></svg>