<svg xmlns="http://www.w3.org/2000/svg" width="970" height="250" viewBox="0 0 970 250"><defs><filter id="s" x="-20%" y="-20%" width="140%" height="140%"><feDropShadow dx="0" dy="10" stdDeviation="14" flood-color="#202733" flood-opacity=".13"/></filter><style>.sans{font-family:-apple-system,BlinkMacSystemFont,'Segoe UI',Arial,sans-serif}.ink{fill:#202733}.muted{fill:#5c6470}.blue{fill:#2864dc}.line{stroke:#d8d1c3}</style></defs><rect width="100%" height="100%" fill="#f7f4ec"/><g class="sans ink" text-anchor="middle" font-weight="400" font-size="18.75"><text x="485" y="45">Не курс по промптам.</text></g><g filter="url(#s)"><ellipse cx="809.6266666666667" cy="105.36" rx="69.84" ry="10.864" fill="#ede8dc"/><rect x="739.7866666666666" y="89.84" width="139.68" height="9.312000000000001" rx="8" fill="#9a7659"/><rect x="782.4666666666666" y="51.040000000000006" width="65.96000000000001" height="40.74" rx="9" fill="#202733"/><rect x="787.1226666666666" y="55.696" width="56.648" height="29.488" rx="5" fill="#e8eefc"/><path d="M796.0466666666666 76.26h90" stroke="#2864dc" stroke-width="7"/><path d="M813.5066666666667 91.78v32" stroke="#202733" stroke-width="12"/><circle cx="761.1266666666667" cy="77.036" r="26" fill="#b97356"/><path d="M749.8746666666666 87.9q28-42 59 0v35H26z" fill="#5d708f"/><path d="M753.3666666666667 94.884L776.6466666666666 81.304" stroke="#b97356" stroke-width="10" stroke-linecap="round"/><rect x="850.7546666666666" y="72.38" width="18.624000000000002" height="21.728" rx="4" fill="#fffdf8" stroke="#d8d1c3"/></g><g transform="translate(16 12) scale(0.43)"><rect x="0" y="0" width="42" height="42" rx="12" fill="#eef3ff" stroke="#cbd8fb"/><circle cx="21" cy="21" r="8" fill="#2864dc"/><circle cx="9" cy="12" r="4" fill="#64d4a0"/><circle cx="33" cy="12" r="4" fill="#9255e8"/><circle cx="9" cy="30" r="4" fill="#ef74ad"/><circle cx="33" cy="30" r="4" fill="#e6c44f"/><text class="sans ink" x="53" y="29" font-size="23" font-weight="400">AI Native Maker</text></g></svg>