<svg xmlns="http://www.w3.org/2000/svg" width="300" height="500" viewBox="0 0 300 500"><defs><filter id="s" x="-20%" y="-20%" width="140%" height="140%"><feDropShadow dx="0" dy="10" stdDeviation="14" flood-color="#202733" flood-opacity=".13"/></filter><style>.sans{font-family:-apple-system,BlinkMacSystemFont,'Segoe UI',Arial,sans-serif}.ink{fill:#202733}.muted{fill:#5c6470}.blue{fill:#2864dc}.line{stroke:#d8d1c3}</style></defs><rect width="100%" height="100%" fill="#f7f4ec"/><g class="sans ink" text-anchor="middle" font-weight="400" font-size="19.09090909090909"><text x="150" y="90">Редакторы. Авторы.</text><text x="150" y="111.57272727272726">Журналисты. Копирайтеры.</text></g><g filter="url(#s)"><rect x="39.400000000000006" y="244.8" width="64.4" height="72.80000000000001" rx="12" fill="#fffdf8" stroke="#d8d1c3" stroke-width="2"/><path d="M67.80000000000001 244.8v28h36" fill="#e8eefc" stroke="#d8d1c3" stroke-width="2"/><path d="M61.400000000000006 260.81600000000003h43.79200000000001" stroke="#5c6470" stroke-width="4" stroke-linecap="round"/><path d="M61.400000000000006 269.552h34.776" stroke="#5c6470" stroke-width="4" stroke-linecap="round"/><path d="M61.400000000000006 278.288h48.944" stroke="#5c6470" stroke-width="4" stroke-linecap="round"/><path d="M61.400000000000006 287.024h28.336000000000002" stroke="#5c6470" stroke-width="4" stroke-linecap="round"/><path d="M61.400000000000006 295.76h41.216" stroke="#5c6470" stroke-width="4" stroke-linecap="round"/></g><path d="M109.4 279.8 L133.20000000000002 279.8" stroke="#2864dc" stroke-width="5" stroke-linecap="round"/><path d="M122.20000000000002 271.8 L133.20000000000002 279.8 L122.20000000000002 287.8" fill="none" stroke="#2864dc" stroke-width="5" stroke-linecap="round" stroke-linejoin="round"/><g filter="url(#s)"><ellipse cx="191.72000000000003" cy="304.86" rx="52.92000000000001" ry="8.232000000000001" fill="#ede8dc"/><rect x="138.8" y="293.1" width="105.84000000000002" height="7.056000000000001" rx="8" fill="#9a7659"/><rect x="171.14000000000001" y="263.7" width="49.980000000000004" height="30.870000000000005" rx="9" fill="#202733"/><rect x="174.668" y="267.228" width="42.92400000000001" height="22.344" rx="5" fill="#e8eefc"/><path d="M181.43 282.81h90" stroke="#2864dc" stroke-width="7"/><path d="M194.66000000000003 294.57v32" stroke="#202733" stroke-width="12"/><circle cx="154.97000000000003" cy="283.398" r="26" fill="#b97356"/><path d="M146.44400000000002 291.63q28-42 59 0v35H26z" fill="#5d708f"/><path d="M149.09 296.922L166.73000000000002 286.632" stroke="#b97356" stroke-width="10" stroke-linecap="round"/><rect x="222.88400000000001" y="279.87" width="14.112000000000002" height="16.464000000000002" rx="4" fill="#fffdf8" stroke="#d8d1c3"/></g><g transform="translate(18 466) scale(0.42857142857142855)"><rect x="0" y="0" width="42" height="42" rx="12" fill="#eef3ff" stroke="#cbd8fb"/><circle cx="21" cy="21" r="8" fill="#2864dc"/><circle cx="9" cy="12" r="4" fill="#64d4a0"/><circle cx="33" cy="12" r="4" fill="#9255e8"/><circle cx="9" cy="30" r="4" fill="#ef74ad"/><circle cx="33" cy="30" r="4" fill="#e6c44f"/><text class="sans ink" x="53" y="29" font-size="23" font-weight="400">AI Native Maker</text></g></svg>