<svg xmlns="http://www.w3.org/2000/svg" width="1920" height="1080" viewBox="0 0 1920 1080"><defs><filter id="sh" x="-25%" y="-25%" width="150%" height="150%"><feDropShadow dx="0" dy="16" stdDeviation="21" flood-color="#7A5B00" flood-opacity=".18"/></filter><style>.s{font-family:'Helvetica Neue',Helvetica,Arial,sans-serif}</style></defs><rect x="0" y="0" width="1920" height="1080" fill="#FFD64A"/><g transform="translate(86.39999999999999 86.39999999999999)"><g fill="#1B1B1F"><circle cx="15.08" cy="15.08" r="10.92"/><circle cx="36.92" cy="15.08" r="10.92"/><circle cx="15.08" cy="36.92" r="10.92"/><circle cx="36.92" cy="36.92" r="10.92"/></g><text class="s" x="70.2" y="37.44" font-size="40.56" font-weight="700" fill="#1B1B1F">AI Native Maker</text></g><text class="s" x="86.39999999999999" y="448.6804718217562" font-size="79.68545216251638" font-weight="700" fill="#1B1B1F">Расшифровка, выжимка,</text><text class="s" x="86.39999999999999" y="541.1155963302753" font-size="79.68545216251638" font-weight="700" fill="#1B1B1F">черновик, правка</text><text class="s" x="86.39999999999999" y="654.5876802096985" font-size="35.06159895150721" font-weight="400" fill="#3F3F46">Один AI-процесс для журналиста,</text><text class="s" x="86.39999999999999" y="701.9208387942333" font-size="35.06159895150721" font-weight="400" fill="#3F3F46">редактора и автора</text><g filter="url(#sh)"><rect x="1365.888" y="152.928" width="435.456" height="516.096" rx="26.12736" fill="#FBF8F1"/><rect x="1418.1427199999998" y="287.11296000000004" width="287.40096" height="23.22432" rx="11.354111999999999" fill="#DEDAD1"/><rect x="1418.1427199999998" y="364.52736000000004" width="339.65568" height="23.22432" rx="11.354111999999999" fill="#C9C4B8"/><rect x="1418.1427199999998" y="441.94176000000004" width="217.728" height="23.22432" rx="11.354111999999999" fill="#DEDAD1"/><rect x="1418.1427199999998" y="519.35616" width="313.52832" height="23.22432" rx="11.354111999999999" fill="#DEDAD1"/><rect x="1418.1427199999998" y="596.7705599999999" width="261.2736" height="23.22432" rx="11.354111999999999" fill="#DEDAD1"/></g><rect x="1059.456" y="731.9232" width="28.224" height="67.7376" rx="14.112" fill="#1B1B1F" opacity=".85"/><rect x="1103.2032" y="703.6991999999999" width="28.224" height="124.18560000000002" rx="14.112" fill="#1B1B1F" opacity=".85"/><rect x="1146.9504" y="675.4751999999999" width="28.224" height="180.63360000000003" rx="14.112" fill="#1B1B1F" opacity=".85"/><rect x="1190.6976" y="714.9887999999999" width="28.224" height="101.60640000000002" rx="14.112" fill="#1B1B1F" opacity=".85"/><rect x="1234.4448" y="658.5407999999999" width="28.224" height="214.5024" rx="14.112" fill="#1B1B1F" opacity=".85"/><rect x="1278.192" y="695.79648" width="28.224" height="139.99104" rx="14.112" fill="#1B1B1F" opacity=".85"/><rect x="1321.9391999999998" y="726.2783999999999" width="28.224" height="79.02720000000001" rx="14.112" fill="#1B1B1F" opacity=".85"/><rect x="1365.6864" y="684.5068799999999" width="28.224" height="162.57023999999998" rx="14.112" fill="#1B1B1F" opacity=".85"/><rect x="1409.4335999999998" y="709.3439999999999" width="28.224" height="112.896" rx="14.112" fill="#1B1B1F" opacity=".85"/><rect x="1453.1807999999999" y="666.4435199999999" width="28.224" height="198.69696000000002" rx="14.112" fill="#1B1B1F" opacity=".85"/><rect x="1496.9279999999999" y="720.6335999999999" width="28.224" height="90.31680000000001" rx="14.112" fill="#1B1B1F" opacity=".85"/><rect x="1540.6752" y="698.0543999999999" width="28.224" height="135.4752" rx="14.112" fill="#1B1B1F" opacity=".85"/><rect x="1584.4224" y="734.18112" width="28.224" height="63.22176000000001" rx="14.112" fill="#1B1B1F" opacity=".85"/></svg>