<svg xmlns="http://www.w3.org/2000/svg" width="300" height="250" viewBox="0 0 300 250"><defs><filter id="sh" x="-25%" y="-25%" width="150%" height="150%"><feDropShadow dx="0" dy="3" stdDeviation="3" flood-color="#7A5B00" flood-opacity=".18"/></filter><style>.s{font-family:'Helvetica Neue',Helvetica,Arial,sans-serif}</style></defs><rect x="0" y="0" width="300" height="250" fill="#FFD64A"/><g transform="translate(22.5 22.5)"><g fill="#1B1B1F"><circle cx="4.785" cy="4.785" r="3.465"/><circle cx="11.715" cy="4.785" r="3.465"/><circle cx="4.785" cy="11.715" r="3.465"/><circle cx="11.715" cy="11.715" r="3.465"/></g><text class="s" x="22.275000000000002" y="11.879999999999999" font-size="12.870000000000001" font-weight="700" fill="#1B1B1F">AI Native Maker</text></g><text class="s" x="22.5" y="61.400000000000006" font-size="25" font-weight="700" fill="#1B1B1F">Текстов много,</text><text class="s" x="22.5" y="90.4" font-size="25" font-weight="700" fill="#1B1B1F">времени мало</text><g filter="url(#sh)"><rect x="201.83" y="123.724" width="60.536" height="79.994" rx="6" fill="#FBF8F1"/><rect x="209.09432" y="144.52244000000002" width="39.95376" height="3.5997299999999997" rx="1.759868" fill="#DEDAD1"/><rect x="209.09432" y="156.52154000000002" width="47.21808" height="3.5997299999999997" rx="1.759868" fill="#C9C4B8"/><rect x="209.09432" y="168.52064000000001" width="30.268" height="3.5997299999999997" rx="1.759868" fill="#DEDAD1"/><rect x="209.09432" y="180.51974" width="43.58592" height="3.5997299999999997" rx="1.759868" fill="#DEDAD1"/></g><g filter="url(#sh)"><rect x="186.696" y="132.372" width="60.536" height="79.994" rx="6" fill="#FBF8F1"/><rect x="193.96032" y="153.17044" width="39.95376" height="3.5997299999999997" rx="1.759868" fill="#DEDAD1"/><rect x="193.96032" y="165.16954" width="47.21808" height="3.5997299999999997" rx="1.759868" fill="#C9C4B8"/><rect x="193.96032" y="177.16864" width="30.268" height="3.5997299999999997" rx="1.759868" fill="#DEDAD1"/><rect x="193.96032" y="189.16774" width="43.58592" height="3.5997299999999997" rx="1.759868" fill="#DEDAD1"/></g><g filter="url(#sh)"><rect x="171.562" y="141.02" width="60.536" height="79.994" rx="6" fill="#FBF8F1"/><rect x="178.82632" y="161.81844" width="39.95376" height="3.5997299999999997" rx="1.759868" fill="#DEDAD1"/><rect x="178.82632" y="173.81754" width="47.21808" height="3.5997299999999997" rx="1.759868" fill="#C9C4B8"/><rect x="178.82632" y="185.81664" width="30.268" height="3.5997299999999997" rx="1.759868" fill="#DEDAD1"/><rect x="178.82632" y="197.81574" width="43.58592" height="3.5997299999999997" rx="1.759868" fill="#DEDAD1"/><rect x="178.82632" y="209.81484" width="36.3216" height="3.5997299999999997" rx="1.759868" fill="#DEDAD1"/></g></svg>