<svg xmlns="http://www.w3.org/2000/svg" width="240" height="400" viewBox="0 0 240 400"><defs><filter id="sh" x="-25%" y="-25%" width="150%" height="150%"><feDropShadow dx="0" dy="2" stdDeviation="3" flood-color="#7A5B00" flood-opacity=".18"/></filter><style>.s{font-family:'Helvetica Neue',Helvetica,Arial,sans-serif}</style></defs><rect x="0" y="0" width="240" height="400" fill="#FFD64A"/><g transform="translate(18 18)"><g fill="#1B1B1F"><circle cx="4.0600000000000005" cy="4.0600000000000005" r="2.94"/><circle cx="9.94" cy="4.0600000000000005" r="2.94"/><circle cx="4.0600000000000005" cy="9.94" r="2.94"/><circle cx="9.94" cy="9.94" r="2.94"/></g><text class="s" x="18.900000000000002" y="10.08" font-size="10.92" font-weight="700" fill="#1B1B1F">AI Native Maker</text></g><text class="s" x="18" y="53.76828309305374" font-size="26.736566186107467" font-weight="700" fill="#1B1B1F">Текстов много,</text><text class="s" x="18" y="84.7826998689384" font-size="26.736566186107467" font-weight="700" fill="#1B1B1F">времени мало</text><g filter="url(#sh)"><rect x="79.19999999999999" y="186.16" width="114.24000000000001" height="150.96" rx="6.8544" fill="#FBF8F1"/><rect x="92.90879999999999" y="225.4096" width="75.39840000000001" height="6.7932" rx="3.32112" fill="#DEDAD1"/><rect x="92.90879999999999" y="248.05360000000002" width="89.1072" height="6.7932" rx="3.32112" fill="#C9C4B8"/><rect x="92.90879999999999" y="270.6976" width="57.120000000000005" height="6.7932" rx="3.32112" fill="#DEDAD1"/><rect x="92.90879999999999" y="293.34159999999997" width="82.25280000000001" height="6.7932" rx="3.32112" fill="#DEDAD1"/></g><g filter="url(#sh)"><rect x="50.64" y="202.48" width="114.24000000000001" height="150.96" rx="6.8544" fill="#FBF8F1"/><rect x="64.3488" y="241.7296" width="75.39840000000001" height="6.7932" rx="3.32112" fill="#DEDAD1"/><rect x="64.3488" y="264.3736" width="89.1072" height="6.7932" rx="3.32112" fill="#C9C4B8"/><rect x="64.3488" y="287.0176" width="57.120000000000005" height="6.7932" rx="3.32112" fill="#DEDAD1"/><rect x="64.3488" y="309.6616" width="82.25280000000001" height="6.7932" rx="3.32112" fill="#DEDAD1"/></g><g filter="url(#sh)"><rect x="22.08" y="218.8" width="114.24000000000001" height="150.96" rx="6.8544" fill="#FBF8F1"/><rect x="35.788799999999995" y="258.0496" width="75.39840000000001" height="6.7932" rx="3.32112" fill="#DEDAD1"/><rect x="35.788799999999995" y="280.6936" width="89.1072" height="6.7932" rx="3.32112" fill="#C9C4B8"/><rect x="35.788799999999995" y="303.3376" width="57.120000000000005" height="6.7932" rx="3.32112" fill="#DEDAD1"/><rect x="35.788799999999995" y="325.9816" width="82.25280000000001" height="6.7932" rx="3.32112" fill="#DEDAD1"/><rect x="35.788799999999995" y="348.6256" width="68.544" height="6.7932" rx="3.32112" fill="#DEDAD1"/></g></svg>