<svg xmlns="http://www.w3.org/2000/svg" width="1600" height="1200" viewBox="0 0 1600 1200"><defs><filter id="sh" x="-25%" y="-25%" width="150%" height="150%"><feDropShadow dx="0" dy="13" stdDeviation="18" flood-color="#7A5B00" flood-opacity=".18"/></filter><style>.s{font-family:'Helvetica Neue',Helvetica,Arial,sans-serif}</style></defs><rect x="0" y="0" width="1600" height="1200" fill="#FFD64A"/><g transform="translate(72 72)"><g fill="#1B1B1F"><circle cx="15.08" cy="15.08" r="10.92"/><circle cx="36.92" cy="15.08" r="10.92"/><circle cx="15.08" cy="36.92" r="10.92"/><circle cx="36.92" cy="36.92" r="10.92"/></g><text class="s" x="70.2" y="37.44" font-size="40.56" font-weight="700" fill="#1B1B1F">AI Native Maker</text></g><text class="s" x="72" y="515.8899082568807" font-size="73.39449541284404" font-weight="700" fill="#1B1B1F">Если вы живёте</text><text class="s" x="72" y="601.0275229357799" font-size="73.39449541284404" font-weight="700" fill="#1B1B1F">в тексте — вам сюда</text><text class="s" x="72" y="705.5412844036697" font-size="32.293577981651374" font-weight="400" fill="#3F3F46">Для авторов, редакторов,</text><text class="s" x="72" y="749.137614678899" font-size="32.293577981651374" font-weight="400" fill="#3F3F46">журналистов и исследователей</text><g filter="url(#sh)"><rect x="882.88" y="331.2" width="416.64" height="524.16" rx="24.998399999999997" fill="#FBF8F1"/><rect x="932.8768" y="467.48159999999996" width="274.9824" height="23.5872" rx="11.531519999999999" fill="#DEDAD1"/><rect x="932.8768" y="546.1056" width="324.9792" height="23.5872" rx="11.531519999999999" fill="#C9C4B8"/><rect x="932.8768" y="624.7296" width="208.32" height="23.5872" rx="11.531519999999999" fill="#DEDAD1"/><rect x="932.8768" y="703.3535999999999" width="299.9808" height="23.5872" rx="11.531519999999999" fill="#DEDAD1"/><rect x="932.8768" y="781.9775999999999" width="249.98399999999998" height="23.5872" rx="11.531519999999999" fill="#DEDAD1"/></g><g filter="url(#sh)" transform="rotate(28 1393.6 586.56)"><rect x="1353.28" y="358.08000000000004" width="73.92" height="403.2" rx="13.44" fill="#FBF8F1"/><path d="M1353.28 761.28h73.92l-36.96 67.2z" fill="#1B1B1F"/><rect x="1353.28" y="358.08000000000004" width="73.92" height="60.48" rx="13.44" fill="#1B1B1F"/></g></svg>