<svg xmlns="http://www.w3.org/2000/svg" width="300" height="250" viewBox="0 0 300 250"><defs><filter id="sh" x="-25%" y="-25%" width="150%" height="150%"><feDropShadow dx="0" dy="3" stdDeviation="3" flood-color="#7A5B00" flood-opacity=".18"/></filter><style>.s{font-family:'Helvetica Neue',Helvetica,Arial,sans-serif}</style></defs><rect x="0" y="0" width="300" height="250" fill="#FFD64A"/><g transform="translate(22.5 22.5)"><g fill="#1B1B1F"><circle cx="4.785" cy="4.785" r="3.465"/><circle cx="11.715" cy="4.785" r="3.465"/><circle cx="4.785" cy="11.715" r="3.465"/><circle cx="11.715" cy="11.715" r="3.465"/></g><text class="s" x="22.275000000000002" y="11.879999999999999" font-size="12.870000000000001" font-weight="700" fill="#1B1B1F">AI Native Maker</text></g><text class="s" x="22.5" y="61.400000000000006" font-size="25" font-weight="700" fill="#1B1B1F">Авторам,</text><text class="s" x="22.5" y="90.4" font-size="25" font-weight="700" fill="#1B1B1F">редакторам и</text><text class="s" x="22.5" y="119.4" font-size="25" font-weight="700" fill="#1B1B1F">журналистам</text><g filter="url(#sh)"><rect x="201.564" y="156.31" width="49.041999999999994" height="61.698" rx="6" fill="#FBF8F1"/><rect x="207.44904" y="172.35148" width="32.36772" height="3" rx="1.5" fill="#DEDAD1"/><rect x="207.44904" y="181.60618" width="38.252759999999995" height="3" rx="1.5" fill="#C9C4B8"/><rect x="207.44904" y="190.86088" width="24.520999999999997" height="3" rx="1.5" fill="#DEDAD1"/><rect x="207.44904" y="200.11558" width="35.31023999999999" height="3" rx="1.5" fill="#DEDAD1"/><rect x="207.44904" y="209.37028" width="29.425199999999997" height="3" rx="1.5" fill="#DEDAD1"/></g><g filter="url(#sh)" transform="rotate(28 261.68 186.368)"><rect x="256.93399999999997" y="159.47400000000002" width="8.700999999999999" height="47.459999999999994" rx="1.5819999999999999" fill="#FBF8F1"/><path d="M256.93399999999997 206.934h8.700999999999999l-4.350499999999999 7.91z" fill="#1B1B1F"/><rect x="256.93399999999997" y="159.47400000000002" width="8.700999999999999" height="7.118999999999999" rx="1.5819999999999999" fill="#1B1B1F"/></g></svg>